<?xml version="1.0" encoding="UTF-8" standalone="no"?>
<!DOCTYPE svg PUBLIC "-//W3C//DTD SVG 1.1//EN" "http://www.w3.org/Graphics/SVG/1.1/DTD/svg11.dtd">
<svg width="100%" height="100%" viewBox="0 0 566 500" version="1.1" xmlns="http://www.w3.org/2000/svg" xmlns:xlink="http://www.w3.org/1999/xlink" xml:space="preserve" xmlns:serif="http://www.serif.com/" style="fill-rule:evenodd;clip-rule:evenodd;">
    <g transform="matrix(1,0,0,1,-53,-56)">
        <g transform="matrix(1,0,0,1,356,55)">
            <path id="b" d="M35.776,0.57L227.01,0.57C245.35,0.57 260.218,14.805 260.218,32.365L260.218,467.635C260.218,485.195 245.351,499.431 227.01,499.431L35.776,499.431C17.436,499.431 2.568,485.195 2.568,467.635L2.568,32.365C2.568,14.805 17.436,0.569 35.776,0.569L35.776,0.57Z"/>
            <path id="b1" serif:id="b" d="M35.776,0.57L227.01,0.57C245.35,0.57 260.218,14.805 260.218,32.365L260.218,467.635C260.218,485.195 245.351,499.431 227.01,499.431L35.776,499.431C17.436,499.431 2.568,485.195 2.568,467.635L2.568,32.365C2.568,14.805 17.436,0.569 35.776,0.569L35.776,0.57Z" style="fill:rgb(33,54,72);"/>
        </g>
        <g transform="matrix(1,0,0,1,358.568,55)">
            <path d="M225.18,0L32.356,0C23.352,0.549 15.05,4.657 7.447,12.324C12.337,8.056 21.057,2.344 32.587,2.344L224.949,2.344C236.479,2.344 245.199,8.056 250.089,12.324C242.486,4.657 234.183,0.549 225.18,0Z" style="fill:url(#_Linear1);"/>
        </g>
        <g transform="matrix(1,0,0,1,358.568,55)">
            <path d="M252.431,462.67L252.431,34.983C252.431,23.507 248.214,19.265 245.698,16.541C243.182,13.818 243.075,12.428 246.69,14.485C250.305,16.541 257.535,22.532 257.535,34.983L257.535,462.67C257.535,475.121 250.305,481.111 246.69,483.168C243.075,485.224 243.182,483.835 245.698,481.111C248.214,478.387 252.431,474.145 252.431,462.67Z" style="fill:url(#_Linear2);"/>
        </g>
        <g transform="matrix(-1,0,0,1,372.22,55)">
            <path d="M8.548,462.67L8.548,34.983C8.548,23.507 4.331,19.265 1.815,16.541C-0.701,13.818 -0.808,12.428 2.807,14.485C6.422,16.541 13.652,22.532 13.652,34.983L13.652,462.67C13.652,475.121 6.422,481.111 2.807,483.168C-0.808,485.224 -0.701,483.835 1.815,481.111C4.331,478.387 8.548,474.145 8.548,462.67Z" style="fill:url(#_Linear3);"/>
        </g>
        <g>
            <path d="M358,156.556L358.965,156.556C360.062,156.556 360.965,157.459 360.965,158.556L360.965,218.907C360.965,220.004 360.062,220.907 358.965,220.907L358,220.907C356.903,220.907 356,220.004 356,218.907L356,158.557C356,157.46 356.903,156.557 358,156.557L358,156.556ZM615.535,209.043L616.5,209.043C617.597,209.043 618.5,209.946 618.5,211.043L618.5,253.993C618.5,255.09 617.597,255.993 616.5,255.993L615.535,255.993C614.438,255.993 613.535,255.09 613.535,253.993L613.535,211.043C613.535,209.946 614.438,209.043 615.535,209.043Z" style="fill:rgb(46,66,60);"/>
        </g>
        <g transform="matrix(1,0,0,1,371.074,67.444)">
            <path id="f" d="M93.602,0L19.196,0C8.09,0 0,7.563 0,17.441L0,439.831C0,452.711 12.502,464.123 26.64,464.123L205.972,464.123C219.59,464.123 232.612,452.623 232.612,439.831L232.612,18.583C232.612,6.743 223.822,0.07 213.416,0L137.83,0C137.543,0.047 132.351,2.182 130.157,7.563C127.962,12.945 123.547,17.235 118.712,17.235L113.097,17.235C110.799,17.235 104.749,15.005 101.686,7.563C98.623,0.121 93.888,0.047 93.602,0Z" style="fill:rgb(54,83,107);"/>
        </g>
        <g>
            <g transform="matrix(1,0,0,1,399,197)">
                <path id="h" d="M176,5C176,2.24 173.76,0 171,0L5,0C2.24,0 0,2.24 0,5L0,186C0,188.76 2.24,191 5,191L171,191C173.76,191 176,188.76 176,186L176,5Z"/>
                <path id="h1" serif:id="h" d="M176,5C176,2.24 173.76,0 171,0L5,0C2.24,0 0,2.24 0,5L0,186C0,188.76 2.24,191 5,191L171,191C173.76,191 176,188.76 176,186L176,5Z" style="fill:rgb(251,252,254);"/>
            </g>
            <g transform="matrix(1,0,0,1,413,233)">
                <g transform="matrix(1,0,0,1,18.222,80)">
                    <text x="0px" y="0px" style="font-family:'Helvetica';font-size:13px;fill:rgb(54,83,107);">Payment <tspan x="54.81px " y="0px ">o</tspan>f</text>
                </g>
                <g transform="matrix(1,0,0,1,88.749,80)">
                    <text x="0px" y="0px" style="font-family:'Helvetica-Bold', 'Helvetica';font-weight:700;font-size:13px;fill:rgb(54,83,107);">$9204</text>
                </g>
                <g transform="matrix(1,0,0,1,23.736,98)">
                    <text x="0px" y="0px" style="font-family:'Helvetica';font-size:13px;fill:rgb(54,83,107);">is compl<tspan x="47.573px " y="0px ">e</tspan>ted and</text>
                </g>
                <g transform="matrix(1,0,0,1,4.676,116)">
                    <text x="0px" y="0px" style="font-family:'Helvetica';font-size:13px;fill:rgb(54,83,107);">processe<tspan x="52.645px " y="0px ">d</tspan> succes<tspan x="103.843px " y="0px ">s</tspan>fully</text>
                </g>
            </g>
            <g transform="matrix(1,0,0,1,458,233)">
                <circle cx="28" cy="28" r="28" style="fill:rgb(186,66,112);fill-opacity:0.25;"/>
                <path d="M19,29.696L23.577,34.273L36.85,21" style="fill:none;stroke:rgb(186,66,112);stroke-width:3px;"/>
            </g>
            <g transform="matrix(1,0,0,1,422,373)">
                <path d="M131,15C131,6.721 124.279,0 116,0L15,0C6.721,0 0,6.721 0,15C0,23.279 6.721,30 15,30L116,30C124.279,30 131,23.279 131,15Z" style="fill:rgb(186,66,112);"/>
                <g transform="matrix(1,0,0,1,45.726,19)">
                    <text x="0px" y="0px" style="font-family:'Helvetica-Bold', 'Helvetica';font-weight:700;font-size:11px;fill:rgb(251,252,254);">Dismiss</text>
                </g>
            </g>
        </g>
        <g>
            <g transform="matrix(1,0,0,1,53,55)">
                <path id="j" d="M35.776,0.57L227.01,0.57C245.35,0.57 260.218,14.805 260.218,32.365L260.218,467.635C260.218,485.195 245.351,499.431 227.01,499.431L35.776,499.431C17.436,499.431 2.568,485.195 2.568,467.635L2.568,32.365C2.568,14.805 17.436,0.569 35.776,0.569L35.776,0.57Z"/>
                <path id="j1" serif:id="j" d="M35.776,0.57L227.01,0.57C245.35,0.57 260.218,14.805 260.218,32.365L260.218,467.635C260.218,485.195 245.351,499.431 227.01,499.431L35.776,499.431C17.436,499.431 2.568,485.195 2.568,467.635L2.568,32.365C2.568,14.805 17.436,0.569 35.776,0.569L35.776,0.57Z" style="fill:rgb(33,54,72);"/>
            </g>
            <g transform="matrix(1,0,0,1,55.568,55)">
                <path d="M225.18,0L32.356,0C23.352,0.549 15.05,4.657 7.447,12.324C12.337,8.056 21.057,2.344 32.587,2.344L224.949,2.344C236.479,2.344 245.199,8.056 250.089,12.324C242.486,4.657 234.183,0.549 225.18,0Z" style="fill:url(#_Linear4);"/>
            </g>
            <g transform="matrix(1,0,0,1,55.568,55)">
                <path d="M252.431,462.67L252.431,34.983C252.431,23.507 248.214,19.265 245.698,16.541C243.182,13.818 243.075,12.428 246.69,14.485C250.305,16.541 257.535,22.532 257.535,34.983L257.535,462.67C257.535,475.121 250.305,481.111 246.69,483.168C243.075,485.224 243.182,483.835 245.698,481.111C248.214,478.387 252.431,474.145 252.431,462.67Z" style="fill:url(#_Linear5);"/>
            </g>
            <g transform="matrix(-1,0,0,1,69.22,55)">
                <path d="M8.548,462.67L8.548,34.983C8.548,23.507 4.331,19.265 1.815,16.541C-0.701,13.818 -0.808,12.428 2.807,14.485C6.422,16.541 13.652,22.532 13.652,34.983L13.652,462.67C13.652,475.121 6.422,481.111 2.807,483.168C-0.808,485.224 -0.701,483.835 1.815,481.111C4.331,478.387 8.548,474.145 8.548,462.67Z" style="fill:url(#_Linear6);"/>
            </g>
            <g>
                <path d="M55,156.556L55.965,156.556C57.062,156.556 57.965,157.459 57.965,158.556L57.965,218.907C57.965,220.004 57.062,220.907 55.965,220.907L55,220.907C53.903,220.907 53,220.004 53,218.907L53,158.557C53,157.46 53.903,156.557 55,156.557L55,156.556ZM312.535,209.043L313.5,209.043C314.597,209.043 315.5,209.946 315.5,211.043L315.5,253.993C315.5,255.09 314.597,255.993 313.5,255.993L312.535,255.993C311.438,255.993 310.535,255.09 310.535,253.993L310.535,211.043C310.535,209.946 311.438,209.043 312.535,209.043Z" style="fill:rgb(46,66,60);"/>
            </g>
            <g transform="matrix(1,0,0,1,68.074,67.444)">
                <path id="k" d="M93.602,0L19.196,0C8.09,0 0,7.563 0,17.441L0,439.831C0,452.711 12.502,464.123 26.64,464.123L205.972,464.123C219.59,464.123 232.612,452.623 232.612,439.831L232.612,18.583C232.612,6.743 223.822,0.07 213.416,0L137.83,0C137.543,0.047 132.351,2.182 130.157,7.563C127.962,12.945 123.547,17.235 118.712,17.235L113.097,17.235C110.799,17.235 104.749,15.005 101.686,7.563C98.623,0.121 93.888,0.047 93.602,0Z" style="fill:rgb(237,243,248);"/>
                <g>
                    <g transform="matrix(1,0,0,1,14.926,160.556)">
                        <path id="n" d="M204,5C204,2.24 201.76,0 199,0L5,0C2.24,0 0,2.24 0,5L0,35C0,37.76 2.24,40 5,40L199,40C201.76,40 204,37.76 204,35L204,5Z"/>
                        <path id="n1" serif:id="n" d="M204,5C204,2.24 201.76,0 199,0L5,0C2.24,0 0,2.24 0,5L0,35C0,37.76 2.24,40 5,40L199,40C201.76,40 204,37.76 204,35L204,5Z" style="fill:rgb(251,252,254);"/>
                    </g>
                    <g>
                        <g transform="matrix(1,0,0,1,30.926,180.556)">
                            <text x="0px" y="0px" style="font-family:'Helvetica';font-size:10px;fill:rgb(54,83,107);">Item #001</text>
                        </g>
                        <g transform="matrix(1,0,0,1,177.557,184.556)">
                            <text x="0px" y="0px" style="font-family:'Helvetica-Bold', 'Helvetica';font-weight:700;font-size:13px;fill:rgb(54,83,107);">$29</text>
                        </g>
                    </g>
                    <g transform="matrix(1,0,0,1,14.926,208.556)">
                        <path id="p" d="M204,5C204,2.24 201.76,0 199,0L5,0C2.24,0 0,2.24 0,5L0,35C0,37.76 2.24,40 5,40L199,40C201.76,40 204,37.76 204,35L204,5Z"/>
                        <path id="p1" serif:id="p" d="M204,5C204,2.24 201.76,0 199,0L5,0C2.24,0 0,2.24 0,5L0,35C0,37.76 2.24,40 5,40L199,40C201.76,40 204,37.76 204,35L204,5Z" style="fill:rgb(251,252,254);"/>
                    </g>
                    <g>
                        <g transform="matrix(1,0,0,1,30.926,228.556)">
                            <text x="0px" y="0px" style="font-family:'Helvetica';font-size:10px;fill:rgb(54,83,107);">Item #002</text>
                        </g>
                        <g transform="matrix(1,0,0,1,171.762,232.556)">
                            <text x="0px" y="0px" style="font-family:'Helvetica-Bold', 'Helvetica';font-weight:700;font-size:13px;fill:rgb(54,83,107);">$105</text>
                        </g>
                    </g>
                    <g transform="matrix(1,0,0,1,14.926,256.556)">
                        <path id="r" d="M204,5C204,2.24 201.76,0 199,0L5,0C2.24,0 0,2.24 0,5L0,35C0,37.76 2.24,40 5,40L199,40C201.76,40 204,37.76 204,35L204,5Z"/>
                        <path id="r1" serif:id="r" d="M204,5C204,2.24 201.76,0 199,0L5,0C2.24,0 0,2.24 0,5L0,35C0,37.76 2.24,40 5,40L199,40C201.76,40 204,37.76 204,35L204,5Z" style="fill:rgb(251,252,254);"/>
                    </g>
                    <g>
                        <g transform="matrix(1,0,0,1,30.926,276.556)">
                            <text x="0px" y="0px" style="font-family:'Helvetica';font-size:10px;fill:rgb(54,83,107);">Item #003</text>
                        </g>
                        <g transform="matrix(1,0,0,1,171.814,280.556)">
                            <text x="0px" y="0px" style="font-family:'Helvetica-Bold', 'Helvetica';font-weight:700;font-size:13px;fill:rgb(54,83,107);">$810</text>
                        </g>
                    </g>
                    <g transform="matrix(1,0,0,1,14.926,304.556)">
                        <path id="t" d="M204,5C204,2.24 201.76,0 199,0L5,0C2.24,0 0,2.24 0,5L0,35C0,37.76 2.24,40 5,40L199,40C201.76,40 204,37.76 204,35L204,5Z"/>
                        <path id="t1" serif:id="t" d="M204,5C204,2.24 201.76,0 199,0L5,0C2.24,0 0,2.24 0,5L0,35C0,37.76 2.24,40 5,40L199,40C201.76,40 204,37.76 204,35L204,5Z" style="fill:rgb(251,252,254);"/>
                    </g>
                    <g>
                        <g transform="matrix(1,0,0,1,30.926,324.556)">
                            <text x="0px" y="0px" style="font-family:'Helvetica';font-size:10px;fill:rgb(54,83,107);">Item #004</text>
                        </g>
                        <g transform="matrix(1,0,0,1,163.627,328.556)">
                            <text x="0px" y="0px" style="font-family:'Helvetica-Bold', 'Helvetica';font-weight:700;font-size:13px;fill:rgb(54,83,107);">$1044</text>
                        </g>
                    </g>
                    <g>
                        <g transform="matrix(1,0,0,1,14.926,352.556)">
                            <path id="v" d="M204,5C204,2.24 201.76,0 199,0L5,0C2.24,0 0,2.24 0,5L0,35C0,37.76 2.24,40 5,40L199,40C201.76,40 204,37.76 204,35L204,5Z"/>
                            <path id="v1" serif:id="v" d="M204,5C204,2.24 201.76,0 199,0L5,0C2.24,0 0,2.24 0,5L0,35C0,37.76 2.24,40 5,40L199,40C201.76,40 204,37.76 204,35L204,5Z" style="fill:rgb(251,252,254);"/>
                        </g>
                        <g>
                            <g transform="matrix(1,0,0,1,30.926,372.556)">
                                <text x="0px" y="0px" style="font-family:'Helvetica';font-size:10px;fill:rgb(54,83,107);">Item #005</text>
                            </g>
                            <g transform="matrix(1,0,0,1,177.473,376.556)">
                                <text x="0px" y="0px" style="font-family:'Helvetica-Bold', 'Helvetica';font-weight:700;font-size:13px;fill:rgb(54,83,107);">$40</text>
                            </g>
                        </g>
                    </g>
                    <g>
                        <g transform="matrix(1,0,0,1,14.926,400.556)">
                            <path id="x" d="M204,5C204,2.24 201.76,0 199,0L5,0C2.24,0 0,2.24 0,5L0,35C0,37.76 2.24,40 5,40L199,40C201.76,40 204,37.76 204,35L204,5Z"/>
                            <path id="x1" serif:id="x" d="M204,5C204,2.24 201.76,0 199,0L5,0C2.24,0 0,2.24 0,5L0,35C0,37.76 2.24,40 5,40L199,40C201.76,40 204,37.76 204,35L204,5Z" style="fill:rgb(251,252,254);"/>
                        </g>
                        <g>
                            <g transform="matrix(1,0,0,1,30.926,420.556)">
                                <text x="0px" y="0px" style="font-family:'Helvetica';font-size:10px;fill:rgb(54,83,107);">Item #006</text>
                            </g>
                            <g transform="matrix(1,0,0,1,160.415,424.556)">
                                <text x="0px" y="0px" style="font-family:'Helvetica-Bold', 'Helvetica';font-weight:700;font-size:13px;fill:rgb(54,83,107);">$2566</text>
                            </g>
                        </g>
                    </g>
                    <g>
                        <g transform="matrix(1,0,0,1,14.926,448.556)">
                            <path id="z" d="M204,5C204,2.24 201.76,0 199,0L5,0C2.24,0 0,2.24 0,5L0,35C0,37.76 2.24,40 5,40L199,40C201.76,40 204,37.76 204,35L204,5Z"/>
                            <path id="z1" serif:id="z" d="M204,5C204,2.24 201.76,0 199,0L5,0C2.24,0 0,2.24 0,5L0,35C0,37.76 2.24,40 5,40L199,40C201.76,40 204,37.76 204,35L204,5Z" style="fill:rgb(251,252,254);"/>
                        </g>
                        <g>
                            <g transform="matrix(1,0,0,1,30.926,468.556)">
                                <text x="0px" y="0px" style="font-family:'Helvetica';font-size:10px;fill:rgb(54,83,107);">Item #001</text>
                            </g>
                            <g transform="matrix(1,0,0,1,163.392,472.556)">
                                <text x="0px" y="0px" style="font-family:'Helvetica-Bold', 'Helvetica';font-weight:700;font-size:13px;fill:rgb(54,83,107);">$4199</text>
                            </g>
                        </g>
                    </g>
                </g>
                <rect x="0" y="0" width="233" height="114" style="fill:rgb(54,83,107);"/>
                <g>
                    <g transform="matrix(1,0,0,1,14.926,80.556)">
                        <path id="B" d="M204,5C204,2.24 201.76,0 199,0L5,0C2.24,0 0,2.24 0,5L0,51C0,53.76 2.24,56 5,56L199,56C201.76,56 204,53.76 204,51L204,5Z"/>
                        <path id="B1" serif:id="B" d="M204,5C204,2.24 201.76,0 199,0L5,0C2.24,0 0,2.24 0,5L0,51C0,53.76 2.24,56 5,56L199,56C201.76,56 204,53.76 204,51L204,5Z" style="fill:rgb(251,252,254);"/>
                    </g>
                    <g transform="matrix(1,0,0,1,31.157,108.556)">
                        <text x="0px" y="0px" style="font-family:'Helvetica';font-size:10px;fill:rgb(54,83,107);">T<tspan x="4.992px 10.546px " y="0px 0px ">ot</tspan>al payment</text>
                    </g>
                    <g transform="matrix(1,0,0,1,138.265,115.556)">
                        <text x="0px" y="0px" style="font-family:'Helvetica-Bold', 'Helvetica';font-weight:700;font-size:20px;fill:rgb(186,66,112);">$920<tspan x="44.369px " y="0px ">4</tspan></text>
                    </g>
                </g>
                <g>
                    <path d="M105.848,54.988L105.848,50.036L105.888,50.036C106.239,50.548 106.687,50.936 107.233,51.198C107.791,51.463 108.403,51.598 109.021,51.592C109.789,51.592 110.46,51.444 111.032,51.148C111.593,50.861 112.083,50.454 112.467,49.955C112.851,49.457 113.137,48.884 113.327,48.237C113.515,47.591 113.609,46.917 113.609,46.217C113.609,45.475 113.515,44.764 113.326,44.084C113.154,43.437 112.859,42.83 112.457,42.295C112.063,41.78 111.559,41.359 110.982,41.063C110.389,40.753 109.682,40.598 108.86,40.598C108.213,40.598 107.62,40.726 107.081,40.982C106.542,41.238 106.098,41.649 105.747,42.215L105.707,42.215L105.707,40.88L102.978,40.88L102.978,54.987L105.848,54.987L105.848,54.988ZM108.253,49.45C107.795,49.45 107.404,49.356 107.081,49.167C106.766,48.987 106.5,48.734 106.303,48.429C106.099,48.104 105.955,47.745 105.879,47.369C105.791,46.964 105.747,46.55 105.747,46.135C105.747,45.705 105.787,45.287 105.868,44.882C105.949,44.478 106.088,44.122 106.283,43.812C106.477,43.503 106.74,43.243 107.051,43.053C107.367,42.858 107.761,42.76 108.233,42.76C108.691,42.76 109.079,42.858 109.395,43.053C109.712,43.249 109.971,43.505 110.173,43.821C110.375,44.138 110.52,44.498 110.608,44.903C110.695,45.307 110.739,45.718 110.739,46.135C110.739,46.553 110.699,46.964 110.618,47.368C110.538,47.772 110.399,48.126 110.204,48.429C110.009,48.732 109.746,48.984 109.436,49.167C109.119,49.356 108.725,49.45 108.253,49.45ZM118.284,51.592C118.928,51.592 119.568,51.497 120.184,51.309C120.799,51.123 121.356,50.782 121.801,50.319C121.828,50.663 121.896,51.002 122.003,51.329L124.913,51.329C124.778,51.114 124.684,50.791 124.63,50.359C124.576,49.929 124.55,49.477 124.55,49.005L124.55,43.57C124.55,42.936 124.408,42.428 124.125,42.044C123.841,41.659 123.466,41.349 123.033,41.144C122.567,40.922 122.069,40.776 121.558,40.71C121.029,40.637 120.495,40.6 119.961,40.599C119.381,40.599 118.802,40.657 118.233,40.771C117.689,40.875 117.166,41.07 116.687,41.347C116.233,41.613 115.846,41.979 115.556,42.417C115.259,42.862 115.091,43.421 115.05,44.095L117.92,44.095C117.974,43.529 118.163,43.125 118.486,42.883C118.809,42.64 119.254,42.519 119.82,42.519C120.076,42.519 120.315,42.536 120.537,42.569C120.76,42.603 120.955,42.67 121.124,42.771C121.292,42.872 121.427,43.014 121.528,43.196C121.628,43.378 121.679,43.624 121.679,43.933C121.693,44.23 121.605,44.456 121.417,44.611C121.228,44.765 120.972,44.883 120.649,44.964C120.325,45.045 119.955,45.106 119.537,45.146C119.119,45.186 118.695,45.24 118.264,45.308C117.833,45.375 117.404,45.466 116.98,45.581C116.576,45.686 116.194,45.86 115.849,46.096C115.519,46.325 115.249,46.632 115.04,47.016C114.831,47.4 114.727,47.888 114.727,48.481C114.727,49.02 114.817,49.485 115,49.875C115.182,50.266 115.434,50.589 115.758,50.845C116.081,51.101 116.458,51.29 116.889,51.411C117.321,51.533 117.785,51.593 118.284,51.593L118.284,51.592ZM119.355,49.692C119.126,49.692 118.904,49.672 118.688,49.632C118.488,49.597 118.296,49.526 118.122,49.42C117.96,49.318 117.827,49.175 117.738,49.005C117.638,48.805 117.59,48.583 117.597,48.359C117.597,48.089 117.644,47.867 117.738,47.692C117.833,47.516 117.958,47.372 118.112,47.257C118.267,47.143 118.449,47.052 118.658,46.984C118.867,46.917 119.078,46.863 119.294,46.823C119.524,46.783 119.753,46.748 119.982,46.722C120.211,46.695 120.43,46.661 120.638,46.62C120.848,46.58 121.043,46.53 121.225,46.469C121.406,46.409 121.558,46.324 121.679,46.216L121.679,47.287C121.679,47.449 121.662,47.665 121.629,47.934C121.595,48.204 121.504,48.47 121.356,48.732C121.189,49.014 120.953,49.247 120.669,49.41C120.359,49.598 119.921,49.692 119.355,49.692ZM128.173,54.988C129.157,54.988 129.925,54.806 130.477,54.442C131.03,54.078 131.461,53.472 131.771,52.623L136.136,40.881L133.166,40.881L130.881,48.035L130.841,48.035L128.476,40.881L125.424,40.881L129.083,50.683C129.163,50.885 129.203,51.1 129.203,51.33C129.203,51.64 129.113,51.922 128.931,52.178C128.749,52.434 128.47,52.583 128.092,52.623C127.809,52.637 127.525,52.63 127.243,52.603L126.415,52.522L126.415,54.887C126.711,54.914 127.005,54.937 127.294,54.957C127.584,54.977 127.877,54.987 128.174,54.987L128.173,54.988ZM139.983,51.572C140.481,51.572 140.939,51.512 141.357,51.39C141.774,51.269 142.148,51.1 142.478,50.885C142.808,50.669 143.088,50.423 143.317,50.147C143.547,49.871 143.721,49.577 143.843,49.268L143.883,49.268L143.883,49.814C143.883,50.029 143.9,50.228 143.933,50.41C143.967,50.592 144.031,50.75 144.125,50.885C144.231,51.029 144.375,51.141 144.54,51.208C144.722,51.289 144.968,51.33 145.277,51.33C145.493,51.33 145.702,51.303 145.904,51.249L145.904,50.602C145.661,50.642 145.473,50.662 145.338,50.662C145.163,50.662 145.028,50.626 144.934,50.552C144.839,50.476 144.768,50.374 144.732,50.258C144.69,50.127 144.666,49.991 144.661,49.854C144.654,49.706 144.651,49.558 144.651,49.41L144.651,43.367C144.651,42.572 144.365,41.928 143.792,41.437C143.219,40.945 142.307,40.699 141.053,40.699C139.8,40.699 138.833,40.985 138.153,41.558C137.473,42.13 137.106,42.989 137.052,44.135L137.82,44.135C137.874,43.205 138.187,42.511 138.76,42.053C139.332,41.595 140.083,41.366 141.013,41.366C141.539,41.366 141.983,41.42 142.347,41.527C142.67,41.614 142.973,41.766 143.237,41.972C143.465,42.161 143.634,42.376 143.741,42.619C143.849,42.861 143.903,43.124 143.903,43.407C143.903,43.771 143.883,44.074 143.843,44.317C143.803,44.559 143.701,44.757 143.539,44.913C143.378,45.068 143.139,45.189 142.822,45.276C142.505,45.364 142.071,45.428 141.518,45.468L140.326,45.57C139.908,45.61 139.474,45.677 139.022,45.772C138.587,45.86 138.17,46.02 137.789,46.247C137.419,46.469 137.112,46.772 136.869,47.156C136.627,47.54 136.506,48.036 136.506,48.642C136.506,49.639 136.809,50.376 137.416,50.855C138.022,51.333 138.877,51.572 139.982,51.572L139.983,51.572ZM140.003,50.905C139.153,50.905 138.487,50.72 138.002,50.349C137.517,49.979 137.274,49.409 137.274,48.642C137.274,48.156 137.368,47.762 137.557,47.459C137.746,47.156 137.992,46.917 138.295,46.742C138.598,46.567 138.938,46.442 139.315,46.368C139.693,46.294 140.07,46.236 140.447,46.196L141.741,46.075C142.212,46.035 142.64,45.974 143.024,45.893C143.408,45.812 143.694,45.657 143.883,45.428L143.883,47.368C143.883,47.503 143.846,47.762 143.772,48.146C143.698,48.53 143.526,48.928 143.256,49.339C142.986,49.749 142.596,50.114 142.084,50.43C141.572,50.747 140.878,50.905 140.003,50.905ZM147.891,55.048L147.891,49.167L147.931,49.167C148.241,50.016 148.733,50.629 149.407,51.007C150.08,51.383 150.848,51.572 151.711,51.572C152.506,51.572 153.196,51.437 153.782,51.168C154.348,50.914 154.847,50.529 155.237,50.046C155.621,49.568 155.907,48.999 156.097,48.338C156.285,47.678 156.379,46.951 156.379,46.156C156.379,45.428 156.285,44.734 156.096,44.074C155.923,43.445 155.631,42.855 155.237,42.336C154.848,41.833 154.351,41.426 153.782,41.143C153.196,40.847 152.506,40.699 151.711,40.699C151.145,40.699 150.643,40.786 150.205,40.962C149.798,41.119 149.419,41.34 149.083,41.618C148.773,41.881 148.524,42.168 148.335,42.478C148.147,42.788 148.012,43.07 147.931,43.326L147.891,43.326L147.891,40.941L147.123,40.941L147.123,55.048L147.891,55.048ZM151.711,50.905C150.983,50.905 150.373,50.774 149.881,50.511C149.408,50.265 149.005,49.903 148.709,49.46C148.41,48.998 148.201,48.484 148.093,47.944C147.97,47.356 147.909,46.757 147.911,46.156C147.911,45.536 147.978,44.94 148.113,44.367C148.236,43.822 148.459,43.305 148.77,42.841C149.074,42.396 149.479,42.029 149.952,41.77C150.437,41.5 151.023,41.366 151.711,41.366C152.411,41.366 153.007,41.504 153.499,41.78C153.991,42.056 154.392,42.42 154.702,42.871C155.012,43.323 155.241,43.835 155.389,44.407C155.537,44.978 155.612,45.566 155.611,46.156C155.611,46.802 155.534,47.412 155.379,47.985C155.239,48.526 154.998,49.037 154.671,49.49C154.355,49.922 153.951,50.265 153.459,50.521C152.967,50.777 152.384,50.905 151.711,50.905ZM158.972,38.981L158.972,36.899L158.204,36.899L158.204,38.981L158.972,38.981ZM158.972,51.33L158.972,40.94L158.204,40.94L158.204,51.33L158.972,51.33Z" style="fill:white;fill-rule:nonzero;"/>
                    <g transform="matrix(1,0,0,1,73.926,33.556)">
                        <g transform="matrix(0.707107,0.707107,-0.707107,0.707107,5.77412,-7.62396)">
                            <circle cx="12.09" cy="3.158" r="1.895" style="fill:white;"/>
                        </g>
                        <g transform="matrix(0.707107,0.707107,-0.707107,0.707107,10.2401,-9.47384)">
                            <circle cx="16.556" cy="7.624" r="1.895" style="fill:white;"/>
                        </g>
                        <g transform="matrix(0.707107,0.707107,-0.707107,0.707107,14.7061,-11.3237)">
                            <circle cx="21.022" cy="12.09" r="1.895" style="fill:white;"/>
                        </g>
                        <g transform="matrix(0.707107,0.707107,-0.707107,0.707107,7.624,-3.15796)">
                            <circle cx="7.624" cy="7.624" r="1.895" style="fill:white;"/>
                        </g>
                        <g transform="matrix(0.707107,0.707107,-0.707107,0.707107,12.09,-5.00784)">
                            <circle cx="12.09" cy="12.09" r="1.895" style="fill:white;fill-opacity:0.5;"/>
                        </g>
                        <g transform="matrix(0.707107,0.707107,-0.707107,0.707107,16.556,-6.85772)">
                            <circle cx="16.556" cy="16.556" r="1.895" style="fill:white;fill-opacity:0.5;"/>
                        </g>
                        <g transform="matrix(0.707107,0.707107,-0.707107,0.707107,9.47388,1.30804)">
                            <circle cx="3.158" cy="12.09" r="1.895" style="fill:white;"/>
                        </g>
                        <g transform="matrix(0.707107,0.707107,-0.707107,0.707107,13.9399,-0.541842)">
                            <circle cx="7.624" cy="16.556" r="1.895" style="fill:white;fill-opacity:0.5;"/>
                        </g>
                        <g transform="matrix(0.707107,0.707107,-0.707107,0.707107,18.4059,-2.39172)">
                            <circle cx="12.09" cy="21.022" r="1.895" style="fill:white;fill-opacity:0.25;"/>
                        </g>
                    </g>
                </g>
            </g>
        </g>
    </g>
    <defs>
        <linearGradient id="_Linear1" x1="0" y1="0" x2="1" y2="0" gradientUnits="userSpaceOnUse" gradientTransform="matrix(7.54627e-16,12.324,-12.324,7.54627e-16,128.768,0)"><stop offset="0" style="stop-color:rgb(69,69,69);stop-opacity:0.39"/><stop offset="0.23" style="stop-color:rgb(153,153,153);stop-opacity:0.39"/><stop offset="1" style="stop-color:white;stop-opacity:0.39"/></linearGradient>
        <linearGradient id="_Linear2" x1="0" y1="0" x2="1" y2="0" gradientUnits="userSpaceOnUse" gradientTransform="matrix(-9.46068,1.1586e-15,-1.1586e-15,-9.46068,257.535,248.826)"><stop offset="0" style="stop-color:white;stop-opacity:0"/><stop offset="0.22" style="stop-color:rgb(186,186,186);stop-opacity:0.75"/><stop offset="0.55" style="stop-color:white;stop-opacity:0"/><stop offset="1" style="stop-color:white;stop-opacity:0"/></linearGradient>
        <linearGradient id="_Linear3" x1="0" y1="0" x2="1" y2="0" gradientUnits="userSpaceOnUse" gradientTransform="matrix(-9.47583,1.16045e-15,-1.16045e-15,-9.47583,13.652,248.826)"><stop offset="0" style="stop-color:white;stop-opacity:0"/><stop offset="0.22" style="stop-color:rgb(186,186,186);stop-opacity:0.75"/><stop offset="0.55" style="stop-color:white;stop-opacity:0"/><stop offset="1" style="stop-color:white;stop-opacity:0"/></linearGradient>
        <linearGradient id="_Linear4" x1="0" y1="0" x2="1" y2="0" gradientUnits="userSpaceOnUse" gradientTransform="matrix(7.54627e-16,12.324,-12.324,7.54627e-16,128.768,0)"><stop offset="0" style="stop-color:rgb(69,69,69);stop-opacity:0.39"/><stop offset="0.23" style="stop-color:rgb(153,153,153);stop-opacity:0.39"/><stop offset="1" style="stop-color:white;stop-opacity:0.39"/></linearGradient>
        <linearGradient id="_Linear5" x1="0" y1="0" x2="1" y2="0" gradientUnits="userSpaceOnUse" gradientTransform="matrix(-9.46068,1.1586e-15,-1.1586e-15,-9.46068,257.535,248.826)"><stop offset="0" style="stop-color:white;stop-opacity:0"/><stop offset="0.22" style="stop-color:rgb(186,186,186);stop-opacity:0.75"/><stop offset="0.55" style="stop-color:white;stop-opacity:0"/><stop offset="1" style="stop-color:white;stop-opacity:0"/></linearGradient>
        <linearGradient id="_Linear6" x1="0" y1="0" x2="1" y2="0" gradientUnits="userSpaceOnUse" gradientTransform="matrix(-9.47583,1.16045e-15,-1.16045e-15,-9.47583,13.652,248.826)"><stop offset="0" style="stop-color:white;stop-opacity:0"/><stop offset="0.22" style="stop-color:rgb(186,186,186);stop-opacity:0.75"/><stop offset="0.55" style="stop-color:white;stop-opacity:0"/><stop offset="1" style="stop-color:white;stop-opacity:0"/></linearGradient>
    </defs>
</svg>
